<svg width="160" height="160" viewBox="0 0 160 160" fill="none" xmlns="http://www.w3.org/2000/svg"><rect x="35" y="35" width="90" height="90" rx="18" fill="#FF6FA8"/><rect x="48" y="48" width="64" height="64" rx="12" fill="#FFF8FC"/><path d="M80 100C66 88 57 80 57 68C57 60 63 55 71 56C76 56 79 60 80 64C82 60 85 56 90 56C98 55 104 60 104 68C104 80 94 88 80 100Z" fill="#FF6FA8"/><path d="M40 28V20M63 28V20M86 28V20M109 28V20M40 140V132M63 140V132M86 140V132M109 140V132" stroke="#FFB6D9" stroke-width="7" stroke-linecap="round"/></svg>
