<svg width="160" height="160" viewBox="0 0 160 160" fill="none" xmlns="http://www.w3.org/2000/svg">
  <path d="M74 73C55 47 26 34 17 54C8 74 36 96 74 84V73Z" fill="#FF8CC6"/>
  <path d="M86 73C105 47 134 34 143 54C152 74 124 96 86 84V73Z" fill="#FF8CC6"/>
  <rect x="63" y="61" width="34" height="38" rx="13" fill="#FF5EAA"/>
  <path d="M25 60C40 58 53 65 65 75" stroke="#FFC8E4" stroke-width="8" stroke-linecap="round"/>
  <path d="M135 60C120 58 107 65 95 75" stroke="#FFC8E4" stroke-width="8" stroke-linecap="round"/>
  <path d="M69 92L56 130L80 116L104 130L91 92H69Z" fill="#FF79B7"/>
</svg>
