<svg width="160" height="160" viewBox="0 0 160 160" fill="none" xmlns="http://www.w3.org/2000/svg">
  <path d="M80 20C93 20 99 43 88 57C103 46 126 52 126 65C126 79 103 85 88 73C100 88 94 111 80 111C66 111 60 88 72 73C57 85 34 79 34 65C34 52 57 46 72 57C61 43 67 20 80 20Z" fill="#F5B2FF"/>
  <path d="M80 49C87 49 92 55 92 65C92 75 87 81 80 81C73 81 68 75 68 65C68 55 73 49 80 49Z" fill="#FFE992"/>
  <path d="M52 111C74 105 91 115 106 137" stroke="#80D8AC" stroke-width="9" stroke-linecap="round"/>
  <path d="M64 119C54 118 46 123 43 134C54 136 63 130 64 119Z" fill="#A5E7C4"/>
  <path d="M95 124C105 120 116 123 122 133C111 139 100 136 95 124Z" fill="#A5E7C4"/>
</svg>
